<?xml version="1.0" encoding="UTF-8"?>
<svg width="1280px" height="1280px" viewBox="0 0 1280 1280" version="1.1" xmlns="http://www.w3.org/2000/svg" xmlns:xlink="http://www.w3.org/1999/xlink">
  <title>logo</title>
  <defs>
    <linearGradient x1="34.6149577%" y1="30.7687316%" x2="34.6149577%" y2="100%" id="linearGradient-1">
      <stop stop-color="#E11B7B" offset="0%"></stop>
      <stop stop-color="#EE4455" offset="100%"></stop>
    </linearGradient>
    <linearGradient x1="65.1514897%" y1="0%" x2="65.1514897%" y2="69.6970207%" id="linearGradient-2">
      <stop stop-color="#FB822A" offset="0%"></stop>
      <stop stop-color="#FB822A" offset="100%"></stop>
    </linearGradient>
    <linearGradient x1="19.4097069%" y1="84.0908518%" x2="98.4966607%" y2="40.1514476%" id="linearGradient-3">
      <stop stop-color="#E11B7B" offset="0%"></stop>
      <stop stop-color="#EF4A4E" offset="100%"></stop>
    </linearGradient>
    <linearGradient x1="50.1329401%" y1="9.009025%" x2="70.5735361%" y2="28.08325%" id="linearGradient-4">
      <stop stop-color="#ED4454" offset="0%"></stop>
      <stop stop-color="#FF8212" offset="100%"></stop>
    </linearGradient>
    <linearGradient x1="0%" y1="32.5896453%" x2="106.0215%" y2="41.0099896%" id="linearGradient-5">
      <stop stop-color="#FF8212" offset="0%"></stop>
      <stop stop-color="#ED4454" offset="100%"></stop>
    </linearGradient>
  </defs>
  <g id="logo" stroke="none" stroke-width="1" fill="none" fill-rule="evenodd">
    <g id="coinIcon/CLV">
      <circle id="Oval" fill="#FDEDED" cx="640" cy="640" r="640"></circle>
      <g id="Logo_Icon_black" stroke-width="1">
        <rect id="Rectangle" fill="#FFFFFF" opacity="0" x="0" y="0" width="1280" height="1280"></rect>
        <g id="logo" transform="translate(160.000000, 160.000000)">
          <path d="M480,787.0272 C543.84,787.0272 592.4328,736.788 592.4328,678.9192 L765.4056,678.9192 C765.4056,835.8816 635.7672,960 480,960 L480,787.0272 Z" id="Path" fill="#FB822A"></path>
          <path d="M787.0272,484.3248 C787.0272,424.6728 738.5688,376.2168 678.9192,376.2168 L678.9192,203.24256 C834.1008,203.24256 960,329.1432 960,484.3248 L787.0272,484.3248 Z" id="Path" fill="url(#linearGradient-1)"></path>
          <path d="M172.97304,480 C172.97304,542.0376 223.36728,592.4328 285.4056,592.4328 L285.4056,765.4056 C127.83696,765.4056 0,637.5696 0,480 L172.97304,480 Z" id="Path" fill="url(#linearGradient-2)"></path>
          <path d="M484.3248,172.97304 C426.456,172.97304 376.2168,221.5656 376.2168,285.4056 L203.24256,285.4056 C203.24256,129.63888 327.36,0 484.3248,0 L484.3248,172.97304 Z" id="Path" fill="url(#linearGradient-3)"></path>
          <path d="M592.4328,283.2432 C592.4328,222.39864 543.0072,172.97304 482.1624,172.97304 L482.1624,0 C638.5368,0 765.4056,126.86832 765.4056,283.2432 C765.4056,439.6176 638.5368,566.4864 482.1624,566.4864 C421.3176,566.4864 371.892,615.912 371.892,676.7568 C371.892,737.6016 421.3176,787.0272 482.1624,787.0272 L482.1624,960 C325.788,960 198.91848,833.1312 198.91848,676.7568 C198.91848,520.3824 325.788,393.5136 482.1624,393.5136 C543.0072,393.5136 592.4328,344.088 592.4328,283.2432 Z" id="Path" fill="url(#linearGradient-4)"></path>
          <path d="M283.2432,371.892 C222.39864,371.892 172.97304,421.3176 172.97304,482.1624 L0,482.1624 C0,325.788 126.86832,198.91848 283.2432,198.91848 C439.6176,198.91848 566.4864,325.788 566.4864,482.1624 C566.4864,543.0072 615.912,592.4328 676.7568,592.4328 C737.6016,592.4328 787.0272,543.0072 787.0272,482.1624 L960,482.1624 C960,638.5368 833.1312,765.4056 676.7568,765.4056 C520.3824,765.4056 393.5136,638.5368 393.5136,482.1624 C393.5136,421.3176 344.088,371.892 283.2432,371.892 Z" id="Path" fill="url(#linearGradient-5)"></path>
        </g>
      </g>
    </g>
  </g>
</svg>
